<?xml version="1.0" encoding="UTF-8"?>
<svg version="1.1" xmlns="http://www.w3.org/2000/svg" width="256" height="256">
<path d="M0 0 C21.08471103 16.22663498 35.58250279 37.93093756 40.078125 64.30078125 C40.30658904 66.27051173 40.44668791 68.25047631 40.5546875 70.23046875 C36.5946875 70.23046875 32.6346875 70.23046875 28.5546875 70.23046875 C27.64322917 67.95182292 26.73177083 65.67317708 25.8203125 63.39453125 C24.75176081 61.08585699 24.75176081 61.08585699 22.5546875 60.3359375 C19.45396884 58.62206371 19.29436158 56.23780828 18.3046875 52.91796875 C11.76238113 32.8099977 -2.63131977 17.52003396 -21.1953125 7.91796875 C-39.8694465 -1.1593976 -61.69688573 -3.07326738 -81.7109375 2.84375 C-103.17296737 10.81343682 -120.35783072 24.19975482 -130.4453125 45.23046875 C-131.82560107 48.87292376 -133.00209007 52.56291042 -134.109375 56.296875 C-135.70368436 59.79782919 -137.15501752 60.41585282 -140.4453125 62.23046875 C-141.65674856 64.22740562 -141.65674856 64.22740562 -142.2578125 66.41796875 C-142.6496875 67.67609375 -143.0415625 68.93421875 -143.4453125 70.23046875 C-147.4053125 70.23046875 -151.3653125 70.23046875 -155.4453125 70.23046875 C-152.1830329 42.17486416 -138.860208 19.39883371 -117.0859375 1.265625 C-82.90251115 -24.02781631 -34.54222042 -24.99620743 0 0 Z " fill="#6087F2" transform="translate(185.4453125,31.76953125)"/>
<path d="M0 0 C22 0 22 0 28 5 C28.75517273 7.46582031 28.75517273 7.46582031 28.76049805 10.078125 C28.78402596 11.55490723 28.78402596 11.55490723 28.80802917 13.06152344 C28.78510551 14.63981934 28.78510551 14.63981934 28.76171875 16.25 C28.76508743 17.34086914 28.76845612 18.43173828 28.77192688 19.55566406 C28.77162828 21.85877199 28.75640311 24.16191975 28.72729492 26.46484375 C28.68763267 29.98821412 28.70658665 33.50781806 28.73242188 37.03125 C28.72486243 39.27084792 28.71390864 41.5104375 28.69921875 43.75 C28.7096949 45.3282959 28.7096949 45.3282959 28.72038269 46.93847656 C28.7013942 47.92299805 28.6824057 48.90751953 28.6628418 49.921875 C28.65584763 50.78393555 28.64885345 51.64599609 28.64164734 52.53417969 C28 55 28 55 23 60 C15.41 60 7.82 60 0 60 C0 40.2 0 20.4 0 0 Z " fill="#6086F1" transform="translate(214,106)"/>
<path d="M0 0 C7.59 0 15.18 0 23 0 C23 19.8 23 39.6 23 60 C15.41 60 7.82 60 0 60 C-5.62643205 53.24828154 -5.62643205 53.24828154 -5.64697266 48.90014648 C-5.66273346 47.93572128 -5.67849426 46.97129608 -5.69473267 45.97764587 C-5.68461151 44.95248367 -5.67449036 43.92732147 -5.6640625 42.87109375 C-5.66884613 41.8038356 -5.67362976 40.73657745 -5.67855835 39.63697815 C-5.68195237 37.38695802 -5.67278501 35.13688824 -5.65185547 32.88696289 C-5.62505846 29.44500842 -5.65163596 26.00630726 -5.68359375 22.56445312 C-5.68029008 20.37499281 -5.67388475 18.18553452 -5.6640625 15.99609375 C-5.67418365 14.96890732 -5.68430481 13.94172089 -5.69473267 12.88340759 C-5.67897186 11.92213455 -5.66321106 10.96086151 -5.64697266 9.97045898 C-5.64299469 9.12917953 -5.63901672 8.28790009 -5.63491821 7.42112732 C-5 5 -5 5 0 0 Z " fill="#6086F1" transform="translate(19,106)"/>
<path d="M0 0 C1.32 0 2.64 0 4 0 C4.55801946 9.47083024 3.41976944 17.1565198 0 26 C-0.34289062 26.96421875 -0.68578125 27.9284375 -1.0390625 28.921875 C-6.72870881 42.50361136 -19.38287176 54.02164255 -32.765625 59.8046875 C-34.36664063 60.39636719 -34.36664063 60.39636719 -36 61 C-36.94359375 61.35320312 -37.8871875 61.70640625 -38.859375 62.0703125 C-45.87155162 64.31988361 -52.6915148 64.31371876 -60 64 C-60.0825 64.5775 -60.165 65.155 -60.25 65.75 C-61.2494867 68.74846009 -62.55584596 70.0032513 -65 72 C-69.27140886 72.84967465 -73.59086853 72.64866158 -77.9375 72.625 C-79.11763672 72.65722656 -80.29777344 72.68945312 -81.51367188 72.72265625 C-89.87268905 72.7321175 -89.87268905 72.7321175 -92.90820312 70.76074219 C-95.19414182 68.17316394 -96.69738126 65.47430045 -96.625 62 C-96.63789062 61.38125 -96.65078125 60.7625 -96.6640625 60.125 C-95.54171803 56.53349769 -94.1355498 54.04828042 -91 52 C-86.6537036 51.12031022 -82.41938238 51.208315 -78 51.3125 C-76.824375 51.29767578 -75.64875 51.28285156 -74.4375 51.26757812 C-64.88462767 51.35985019 -64.88462767 51.35985019 -61.6875 54.35546875 C-60 57 -60 57 -60 60 C-59.34 59.67 -58.68 59.34 -58 59 C-55.71052696 58.73065023 -53.41830566 58.48448933 -51.125 58.25 C-40.0479648 56.91490476 -30.92576044 52.64076576 -22 46 C-20.96875 45.2575 -19.9375 44.515 -18.875 43.75 C-7.7892712 33.14625941 -2.3855512 19.12379742 -1.24609375 4.1015625 C-1 2 -1 2 0 0 Z " fill="#6086F1" transform="translate(222,170)"/>
<path d="M0 0 C1.66323853 1.05761719 1.66323853 1.05761719 3 3 C3.29595299 5.56506815 3.41000755 7.88766985 3.38818359 10.453125 C3.39344055 11.20952271 3.39869751 11.96592041 3.40411377 12.74523926 C3.41732414 15.24703586 3.40857232 17.74819686 3.3984375 20.25 C3.40045794 21.98730593 3.40336914 23.72461104 3.40713501 25.46191406 C3.41155976 29.10359774 3.40512254 32.74506072 3.39111328 36.38671875 C3.37402122 41.05773484 3.38386161 45.72823384 3.40183067 50.39923096 C3.41266449 53.98685613 3.40922404 57.57435845 3.4014473 61.1619873 C3.39944417 62.88440003 3.4019085 64.60682387 3.40888596 66.32922363 C3.41649395 68.73540855 3.40490612 71.1407528 3.38818359 73.546875 C3.39729263 74.61766296 3.39729263 74.61766296 3.40658569 75.71008301 C3.36956071 78.581635 3.3173411 80.53888715 1.66323853 82.94238281 C-0.95518576 84.60738184 -2.98198376 84.37725203 -6 84 C-7.66323853 82.94238281 -7.66323853 82.94238281 -9 81 C-9.29595299 78.43493185 -9.41000755 76.11233015 -9.38818359 73.546875 C-9.39344055 72.79047729 -9.39869751 72.03407959 -9.40411377 71.25476074 C-9.41732414 68.75296414 -9.40857232 66.25180314 -9.3984375 63.75 C-9.40045794 62.01269407 -9.40336914 60.27538896 -9.40713501 58.53808594 C-9.41155976 54.89640226 -9.40512254 51.25493928 -9.39111328 47.61328125 C-9.37402122 42.94226516 -9.38386161 38.27176616 -9.40183067 33.60076904 C-9.41266449 30.01314387 -9.40922404 26.42564155 -9.4014473 22.8380127 C-9.39944417 21.11559997 -9.4019085 19.39317613 -9.40888596 17.67077637 C-9.41649395 15.26459145 -9.40490612 12.8592472 -9.38818359 10.453125 C-9.39425629 9.73926636 -9.40032898 9.02540771 -9.40658569 8.28991699 C-9.36956071 5.418365 -9.3173411 3.46111285 -7.66323853 1.05761719 C-5.04481424 -0.60738184 -3.01801624 -0.37725203 0 0 Z " fill="#6086F2" transform="translate(207,94)"/>
<path d="M0 0 C1.66323853 1.05761719 1.66323853 1.05761719 3 3 C3.29595299 5.56506815 3.41000755 7.88766985 3.38818359 10.453125 C3.39344055 11.20952271 3.39869751 11.96592041 3.40411377 12.74523926 C3.41732414 15.24703586 3.40857232 17.74819686 3.3984375 20.25 C3.40045794 21.98730593 3.40336914 23.72461104 3.40713501 25.46191406 C3.41155976 29.10359774 3.40512254 32.74506072 3.39111328 36.38671875 C3.37402122 41.05773484 3.38386161 45.72823384 3.40183067 50.39923096 C3.41266449 53.98685613 3.40922404 57.57435845 3.4014473 61.1619873 C3.39944417 62.88440003 3.4019085 64.60682387 3.40888596 66.32922363 C3.41649395 68.73540855 3.40490612 71.1407528 3.38818359 73.546875 C3.39729263 74.61766296 3.39729263 74.61766296 3.40658569 75.71008301 C3.36956071 78.581635 3.3173411 80.53888715 1.66323853 82.94238281 C-0.95518576 84.60738184 -2.98198376 84.37725203 -6 84 C-7.66323853 82.94238281 -7.66323853 82.94238281 -9 81 C-9.29595299 78.43493185 -9.41000755 76.11233015 -9.38818359 73.546875 C-9.39344055 72.79047729 -9.39869751 72.03407959 -9.40411377 71.25476074 C-9.41732414 68.75296414 -9.40857232 66.25180314 -9.3984375 63.75 C-9.40045794 62.01269407 -9.40336914 60.27538896 -9.40713501 58.53808594 C-9.41155976 54.89640226 -9.40512254 51.25493928 -9.39111328 47.61328125 C-9.37402122 42.94226516 -9.38386161 38.27176616 -9.40183067 33.60076904 C-9.41266449 30.01314387 -9.40922404 26.42564155 -9.4014473 22.8380127 C-9.39944417 21.11559997 -9.4019085 19.39317613 -9.40888596 17.67077637 C-9.41649395 15.26459145 -9.40490612 12.8592472 -9.38818359 10.453125 C-9.39425629 9.73926636 -9.40032898 9.02540771 -9.40658569 8.28991699 C-9.36956071 5.418365 -9.3173411 3.46111285 -7.66323853 1.05761719 C-5.04481424 -0.60738184 -3.01801624 -0.37725203 0 0 Z " fill="#6086F2" transform="translate(55,94)"/>
<path d="M0 0 C6.93 0 13.86 0 21 0 C21 11.72335316 17.86951834 19.63247499 11 29 C6.38 27.35 1.76 25.7 -3 24 C-2.690625 22.2675 -2.38125 20.535 -2.0625 18.75 C-1.01468616 12.5077048 -0.45084556 6.31183785 0 0 Z " fill="#6186F1" transform="translate(157,134)"/>
<path d="M0 0 C6.93 0 13.86 0 21 0 C21.9375 8.0625 21.9375 8.0625 22.22631836 10.55883789 C22.30503174 11.23164795 22.38374512 11.90445801 22.46484375 12.59765625 C22.58267212 13.61098022 22.58267212 13.61098022 22.70288086 14.64477539 C23.09691835 17.76825912 23.55477161 20.88340124 24 24 C17.07 26.475 17.07 26.475 10 29 C3.13048166 19.63247499 0 11.72335316 0 0 Z " fill="#6186F1" transform="translate(78,134)"/>
<path d="M0 0 C6.93 2.475 6.93 2.475 14 5 C13.690625 6.7325 13.38125 8.465 13.0625 10.25 C12.01468616 16.4922952 11.45084556 22.68816215 11 29 C4.07 29 -2.86 29 -10 29 C-10 17.27664684 -6.86951834 9.36752501 0 0 Z " fill="#6086F1" transform="translate(88,101)"/>
<path d="M0 0 C8.1918892 8.1918892 11 17.53431024 11 29 C4.07 29 -2.86 29 -10 29 C-10.9375 20.9375 -10.9375 20.9375 -11.22631836 18.44116211 C-11.75179861 13.94956994 -12.3404998 9.47390674 -13 5 C-8.71 3.35 -4.42 1.7 0 0 Z " fill="#6086F1" transform="translate(167,101)"/>
<path d="M0 0 C7.92 0 15.84 0 24 0 C24 16.11111111 24 16.11111111 22 22 C19.49589513 23.25205243 18.19935991 22.95815898 15.4296875 22.66015625 C14.62257324 22.57644775 13.81545898 22.49273926 12.98388672 22.40649414 C11.44498779 22.23621704 11.44498779 22.23621704 9.875 22.0625 C6.61625 21.711875 3.3575 21.36125 0 21 C0 14.07 0 7.14 0 0 Z " fill="#6187F1" transform="translate(130,134)"/>
<path d="M0 0 C7.92 0 15.84 0 24 0 C24 6.93 24 13.86 24 21 C13.605 21.99 13.605 21.99 3 23 C0.09737277 14.2921183 0 9.74559577 0 0 Z " fill="#6087F2" transform="translate(102,134)"/>
<path d="M0 0 C2.44347013 7.19466206 2 14.44485087 2 22 C-5.92 22 -13.84 22 -22 22 C-22 15.07 -22 8.14 -22 1 C-18.74125 0.649375 -15.4825 0.29875 -12.125 -0.0625 C-11.09906738 -0.17601807 -10.07313477 -0.28953613 -9.01611328 -0.40649414 C-8.20899902 -0.49020264 -7.40188477 -0.57391113 -6.5703125 -0.66015625 C-5.32918701 -0.79369507 -5.32918701 -0.79369507 -4.06298828 -0.92993164 C-2 -1 -2 -1 0 0 Z " fill="#6187F1" transform="translate(152,108)"/>
<path d="M0 0 C1.56697685 0.05378811 3.1315676 0.18105778 4.69140625 0.33984375 C5.96673218 0.46540649 5.96673218 0.46540649 7.26782227 0.59350586 C8.35506592 0.70702393 9.44230957 0.82054199 10.5625 0.9375 C14.006875 1.288125 17.45125 1.63875 21 2 C21 8.93 21 15.86 21 23 C13.08 23 5.16 23 -3 23 C-3 3 -3 3 0 0 Z " fill="#6087F2" transform="translate(105,107)"/>
<path d="M0 0 C13.5 0 13.5 0 20 2 C17.62593145 10.63297656 12.76508978 17.70981896 5.375 22.8125 C3 24 3 24 0 24 C0 16.08 0 8.16 0 0 Z " fill="#6086F2" transform="translate(130,158)"/>
<path d="M0 0 C0 7.92 0 15.84 0 24 C-6.81437173 22.63712565 -10.31578344 20.31757336 -14.1875 14.625 C-20 5.36466535 -20 5.36466535 -20 2 C-12.75801783 -0.22830221 -8.1768929 0 0 0 Z " fill="#6186F1" transform="translate(126,158)"/>
<path d="M0 0 C6.81437173 1.36287435 10.31578344 3.68242664 14.1875 9.375 C20 18.63533465 20 18.63533465 20 22 C12.75801783 24.22830221 8.1768929 24 0 24 C0 16.08 0 8.16 0 0 Z " fill="#6186F1" transform="translate(130,82)"/>
<path d="M0 0 C0 7.92 0 15.84 0 24 C-13.5 24 -13.5 24 -20 22 C-17.62593145 13.36702344 -12.76508978 6.29018104 -5.375 1.1875 C-3 0 -3 0 0 0 Z " fill="#6086F2" transform="translate(126,82)"/>
<path d="M0 0 C18.10115741 -0.79988748 33.78443556 3.99514905 47.73046875 15.8828125 C55.68775174 23.30595773 55.68775174 23.30595773 58 27 C57.70703125 29.265625 57.70703125 29.265625 57 31 C53.38141686 30.44509848 52.13290227 29.30668301 49.9375 26.4375 C39.87411818 14.43885245 25.26132164 7.43532283 9.86328125 5.6328125 C7.97056904 5.46951968 6.07592103 5.32636041 4.1796875 5.2109375 C2 5 2 5 0 4 C0 2.68 0 1.36 0 0 Z " fill="#6186F2" transform="translate(126,62)"/>
<path d="M0 0 C3.63637417 0.56495091 5.04024983 1.83422642 7.4375 4.5625 C19.10380248 16.61767923 34.4382937 22.11188789 50.76171875 23.640625 C54 24 54 24 56 25 C56 26.32 56 27.64 56 29 C37.60979349 30.11643749 20.80385793 24.16745412 7 12 C0.29061372 5.87184116 0.29061372 5.87184116 -1 2 C-0.67 1.34 -0.34 0.68 0 0 Z " fill="#6086F1" transform="translate(74,173)"/>
<path d="M0 0 C1.41910652 0.25774371 2.83524899 0.53183165 4.25 0.8125 C5.03890625 0.96332031 5.8278125 1.11414063 6.640625 1.26953125 C9.25904109 2.08019981 10.91104512 3.25121897 13 5 C6.82034433 11.14844529 0.28095878 16.02830458 -8 19 C-8.99 18.67 -9.98 18.34 -11 18 C-10.62488281 17.45472656 -10.24976563 16.90945312 -9.86328125 16.34765625 C-6.2660462 11.04694465 -3.01841522 5.64951168 0 0 Z " fill="#6086F2" transform="translate(153,161)"/>
<path d="M0 0 C1.5625 2.546875 1.5625 2.546875 3 5.75 C4.92991254 10.00839396 6.94699396 13.44693263 10 17 C6.06885495 18.31038168 5.02867974 17.37989883 1.375 15.5625 C-4.56988132 12.48880832 -9.27305134 8.70307518 -14 4 C-9.87265727 0.76217079 -5.24605146 -2.37711707 0 0 Z " fill="#6186F1" transform="translate(104,162)"/>
<path d="M0 0 C-0.37511719 0.54527344 -0.75023438 1.09054688 -1.13671875 1.65234375 C-4.7339538 6.95305535 -7.98158478 12.35048832 -11 18 C-12.41910652 17.74225629 -13.83524899 17.46816835 -15.25 17.1875 C-16.03890625 17.03667969 -16.8278125 16.88585937 -17.640625 16.73046875 C-20.25904109 15.91980019 -21.91104512 14.74878103 -24 13 C-8.19011407 -2.73003802 -8.19011407 -2.73003802 0 0 Z " fill="#6186F1" transform="translate(114,85)"/>
<path d="M0 0 C9.87467946 1.66328821 16.96791298 7.15475587 24 14 C21.13559145 16.3979567 18.91205724 17.48740082 15.25 18.1875 C14.45078125 18.34605469 13.6515625 18.50460938 12.828125 18.66796875 C12.22484375 18.77753906 11.6215625 18.88710937 11 19 C10.45730469 18.04738281 9.91460937 17.09476563 9.35546875 16.11328125 C8.63284161 14.84633756 7.91018373 13.57941141 7.1875 12.3125 C6.83107422 11.68666016 6.47464844 11.06082031 6.10742188 10.41601562 C4.1116542 6.91884475 2.08731295 3.44373714 0 0 Z " fill="#6086F2" transform="translate(142,84)"/>
<path d="" fill="#5F86F2" transform="translate(0,0)"/>
<path d="" fill="#6288F2" transform="translate(0,0)"/>
<path d="" fill="#5F86F2" transform="translate(0,0)"/>
<path d="" fill="#6288F2" transform="translate(0,0)"/>
</svg>
