<?xml version="1.0" encoding="UTF-8"?>
<svg version="1.1" xmlns="http://www.w3.org/2000/svg" width="256" height="256">
<path d="M0 0 C11.52397102 9.57495042 21.69361484 19.81176823 29.91015625 32.41796875 C30.47476563 33.26359375 31.039375 34.10921875 31.62109375 34.98046875 C39.96049261 48.26313118 45.55347687 63.93400094 47.91015625 79.41796875 C48.090625 80.59230469 48.27109375 81.76664062 48.45703125 82.9765625 C50.5451297 100.43406085 49.70866289 118.50001544 44.91015625 135.41796875 C44.70116699 136.15547363 44.49217773 136.89297852 44.27685547 137.65283203 C35.10824158 168.68876173 12.24371679 195.87729338 -15.96630859 211.45410156 C-45.88361728 227.13370237 -81.93058218 230.33765251 -114.28564453 220.76855469 C-133.93069775 214.55342618 -150.14829998 203.46826254 -165.08984375 189.41796875 C-165.97542969 188.6290625 -165.97542969 188.6290625 -166.87890625 187.82421875 C-180.14084044 175.50507609 -189.66282164 158.32929274 -195.46484375 141.35546875 C-195.69147705 140.69699951 -195.91811035 140.03853027 -196.15161133 139.36010742 C-200.25238977 126.47481073 -201.64965045 113.55350332 -201.52734375 100.10546875 C-201.52430237 99.3894046 -201.52126099 98.67334045 -201.51812744 97.93557739 C-201.44594831 86.39830528 -200.59115791 75.46815887 -197.08984375 64.41796875 C-196.87553711 63.73041504 -196.66123047 63.04286133 -196.44042969 62.33447266 C-190.09398857 42.61616325 -179.24405781 26.47002474 -165.08984375 11.41796875 C-164.56390625 10.82757813 -164.03796875 10.2371875 -163.49609375 9.62890625 C-122.48697319 -34.51866741 -46.20397101 -36.1298885 0 0 Z M-99.046875 36.6328125 C-107.73663957 48.47947051 -110.38170748 61.02244379 -109.08984375 75.41796875 C-106.65808104 89.00380471 -99.1292172 99.33170501 -88.08984375 107.41796875 C-76.86719359 114.15444385 -64.46330663 116.91400625 -51.51953125 114.4296875 C-38.07696582 110.4642838 -26.17995143 103.07849834 -19.15234375 90.609375 C-13.27241964 78.48203152 -11.73546069 65.01978942 -15.65234375 51.98046875 C-20.57931747 39.55144793 -28.506388 29.25404601 -40.77734375 23.48046875 C-61.60851623 14.66120149 -84.22347947 19.23827933 -99.046875 36.6328125 Z M-129.08984375 62.41796875 C-129.08984375 75.61796875 -129.08984375 88.81796875 -129.08984375 102.41796875 C-119.84984375 102.41796875 -110.60984375 102.41796875 -101.08984375 102.41796875 C-103.39984375 98.78796875 -105.70984375 95.15796875 -108.08984375 91.41796875 C-112.46710001 81.51154668 -113.38224788 73.23407698 -114.08984375 62.41796875 C-119.03984375 62.41796875 -123.98984375 62.41796875 -129.08984375 62.41796875 Z M-9.08984375 62.41796875 C-9.17234375 64.64546875 -9.25484375 66.87296875 -9.33984375 69.16796875 C-9.9497382 79.75522916 -13.03922235 88.44625119 -18.8203125 97.359375 C-20.23902443 99.48415815 -20.23902443 99.48415815 -21.08984375 102.41796875 C-21.74984375 102.41796875 -22.40984375 102.41796875 -23.08984375 102.41796875 C-24.22307044 103.58553564 -25.35610788 104.7532867 -26.48828125 105.921875 C-35.67874852 114.50711637 -48.51000962 119.52922648 -61.08642578 119.39697266 C-65.43514889 119.22213438 -69.75952876 118.85573283 -74.08984375 118.41796875 C-73.75984375 119.40796875 -73.42984375 120.39796875 -73.08984375 121.41796875 C-70.77984375 121.41796875 -68.46984375 121.41796875 -66.08984375 121.41796875 C-66.08984375 126.69796875 -66.08984375 131.97796875 -66.08984375 137.41796875 C-32.92484375 137.91296875 -32.92484375 137.91296875 0.91015625 138.41796875 C0.91015625 139.40796875 0.91015625 140.39796875 0.91015625 141.41796875 C-21.19984375 141.74796875 -43.30984375 142.07796875 -66.08984375 142.41796875 C-65.75984375 143.40796875 -65.42984375 144.39796875 -65.08984375 145.41796875 C-62.77984375 145.41796875 -60.46984375 145.41796875 -58.08984375 145.41796875 C-58.08984375 146.40796875 -58.08984375 147.39796875 -58.08984375 148.41796875 C-61.55484375 148.91296875 -61.55484375 148.91296875 -65.08984375 149.41796875 C-65.41984375 148.75796875 -65.74984375 148.09796875 -66.08984375 147.41796875 C-66.08984375 149.39796875 -66.08984375 151.37796875 -66.08984375 153.41796875 C-42.32984375 153.41796875 -18.56984375 153.41796875 5.91015625 153.41796875 C5.91015625 123.38796875 5.91015625 93.35796875 5.91015625 62.41796875 C0.96015625 62.41796875 -3.98984375 62.41796875 -9.08984375 62.41796875 Z M-135.59985352 109.25927734 C-137.37387007 111.39230167 -137.37387007 111.39230167 -137.08984375 114.41796875 C-135.76984375 114.41796875 -134.44984375 114.41796875 -133.08984375 114.41796875 C-132.75984375 113.42796875 -132.42984375 112.43796875 -132.08984375 111.41796875 C-127.28437696 111.3439158 -122.47924085 111.28941378 -117.67333984 111.25317383 C-116.03786434 111.23806964 -114.40242946 111.21758486 -112.76708984 111.19165039 C-110.41884351 111.1553373 -108.0711317 111.13825943 -105.72265625 111.125 C-104.98927032 111.10951614 -104.2558844 111.09403229 -103.50027466 111.07807922 C-101.43798828 111.07739258 -101.43798828 111.07739258 -98.08984375 111.41796875 C-97.42984375 112.40796875 -96.76984375 113.39796875 -96.08984375 114.41796875 C-95.09984375 114.41796875 -94.10984375 114.41796875 -93.08984375 114.41796875 C-93.36019009 111.98079617 -93.36019009 111.98079617 -94.08984375 109.41796875 C-97.82585311 106.92729584 -100.78782108 107.09471934 -105.1171875 107.08203125 C-106.29517662 107.07204605 -106.29517662 107.07204605 -107.4969635 107.06185913 C-109.15705016 107.0517396 -110.81717745 107.0470419 -112.47729492 107.04736328 C-115.01484279 107.04299029 -117.55065055 107.00666703 -120.08789062 106.96875 C-121.70181697 106.96288158 -123.31575158 106.95891235 -124.9296875 106.95703125 C-125.68708725 106.94266022 -126.444487 106.92828918 -127.22483826 106.91348267 C-130.74043851 106.94391818 -132.72946402 107.15359915 -135.59985352 109.25927734 Z M-152.08984375 121.41796875 C-152.3667044 123.45264309 -152.3667044 123.45264309 -152.28515625 125.76953125 C-152.27871094 126.6203125 -152.27226562 127.47109375 -152.265625 128.34765625 C-152.24886719 129.23710937 -152.23210937 130.1265625 -152.21484375 131.04296875 C-152.20582031 131.94015625 -152.19679687 132.83734375 -152.1875 133.76171875 C-152.16389345 135.98073461 -152.13096685 138.19921952 -152.08984375 140.41796875 C-139.24461057 146.82016425 -139.24461057 146.82016425 -125.08984375 147.41796875 C-125.08984375 144.44796875 -125.08984375 141.47796875 -125.08984375 138.41796875 C-118.48984375 138.41796875 -111.88984375 138.41796875 -105.08984375 138.41796875 C-105.08984375 141.38796875 -105.08984375 144.35796875 -105.08984375 147.41796875 C-94.83201458 148.78712815 -87.01215707 144.94425178 -78.08984375 140.41796875 C-76.05552015 138.38364515 -76.85932257 134.38850461 -76.83984375 131.60546875 C-76.81921875 130.88037109 -76.79859375 130.15527344 -76.77734375 129.40820312 C-76.75518515 126.3807845 -76.82814567 123.94408129 -78.18943787 121.20736694 C-80.98045405 118.57938134 -83.03644989 118.92335774 -86.82446289 118.93212891 C-87.50443832 118.92833221 -88.18441376 118.92453552 -88.88499451 118.92062378 C-91.13213254 118.91321532 -93.37797697 118.93460039 -95.625 118.95703125 C-97.18533679 118.95941537 -98.74567649 118.96032106 -100.30601501 118.95980835 C-103.57536805 118.9629367 -106.84428264 118.97950556 -110.11352539 119.00634766 C-114.30927596 119.04035597 -118.50454527 119.0479755 -122.70041752 119.04645729 C-125.92171341 119.04700044 -129.14290357 119.0579583 -132.36416435 119.07246017 C-133.91155637 119.07883472 -135.45896038 119.0827686 -137.00636482 119.08424759 C-139.16599172 119.08857218 -141.32510266 119.10605323 -143.48461914 119.12744141 C-144.71467178 119.135065 -145.94472443 119.1426886 -147.21205139 119.15054321 C-150.21861365 119.12097488 -150.21861365 119.12097488 -152.08984375 121.41796875 Z M-72.08984375 137.41796875 C-72.08984375 139.39796875 -72.08984375 141.37796875 -72.08984375 143.41796875 C-71.75984375 143.41796875 -71.42984375 143.41796875 -71.08984375 143.41796875 C-71.08984375 141.43796875 -71.08984375 139.45796875 -71.08984375 137.41796875 C-71.41984375 137.41796875 -71.74984375 137.41796875 -72.08984375 137.41796875 Z M-158.08984375 143.41796875 C-158.16398696 148.34754134 -158.21844192 153.27678956 -158.25463867 158.20678711 C-158.26972759 159.88392795 -158.29020123 161.56102932 -158.31616211 163.23803711 C-158.35254186 165.64837379 -158.36956861 168.05818894 -158.3828125 170.46875 C-158.39829636 171.21884842 -158.41378021 171.96894684 -158.42973328 172.74177551 C-158.46921033 176.60780444 -158.46921033 176.60780444 -157.04585266 180.11579895 C-154.03552744 182.11985658 -150.94905553 181.83513251 -147.453125 181.80615234 C-146.67722015 181.8114093 -145.90131531 181.81666626 -145.10189819 181.82208252 C-142.53517573 181.83529459 -139.96907261 181.82654041 -137.40234375 181.81640625 C-135.62019735 181.81842664 -133.83805176 181.82133779 -132.0559082 181.82510376 C-128.3200697 181.82952874 -124.58444632 181.82309051 -120.84863281 181.80908203 C-116.05655291 181.79198999 -111.26497705 181.80183025 -106.47291565 181.81979942 C-102.79264519 181.8306326 -99.1124945 181.82719308 -95.43222046 181.81941605 C-93.66515036 181.81741274 -91.89806943 181.81987787 -90.13101196 181.82685471 C-87.66256851 181.8344616 -85.1949448 181.82287628 -82.7265625 181.80615234 C-81.62772232 181.81526138 -81.62772232 181.81526138 -80.50668335 181.82455444 C-76.60100351 181.77880141 -76.60100351 181.77880141 -73.17504883 180.08120728 C-70.70117733 176.28963048 -70.97426428 172.73493879 -70.9921875 168.34375 C-70.99360245 167.65991745 -70.9950174 166.9760849 -70.99647522 166.27153015 C-71.00206499 164.09113153 -71.01461553 161.91083624 -71.02734375 159.73046875 C-71.03236008 158.25065253 -71.03692275 156.77083469 -71.04101562 155.29101562 C-71.05203104 151.66663318 -71.06928863 148.04231105 -71.08984375 144.41796875 C-72.07984375 144.08796875 -73.06984375 143.75796875 -74.08984375 143.41796875 C-76.06984375 144.40796875 -78.04984375 145.39796875 -80.08984375 146.41796875 C-80.08984375 154.66796875 -80.08984375 162.91796875 -80.08984375 171.41796875 C-103.18984375 171.41796875 -126.28984375 171.41796875 -150.08984375 171.41796875 C-150.08984375 163.16796875 -150.08984375 154.91796875 -150.08984375 146.41796875 C-155.26995216 143.26889755 -155.26995216 143.26889755 -158.08984375 143.41796875 Z M-120.08984375 143.41796875 C-120.52064536 148.65904196 -120.52064536 148.65904196 -118.96484375 153.48046875 C-116.09904175 154.91336975 -114.09436223 154.2670718 -111.08984375 153.41796875 C-109.94631459 151.13091044 -109.98649936 149.82532113 -110.02734375 147.29296875 C-110.04796875 146.01421875 -110.06859375 144.73546875 -110.08984375 143.41796875 C-113.38984375 143.41796875 -116.68984375 143.41796875 -120.08984375 143.41796875 Z M-66.08984375 158.41796875 C-66.08984375 161.05796875 -66.08984375 163.69796875 -66.08984375 166.41796875 C-62.78984375 166.74796875 -59.48984375 167.07796875 -56.08984375 167.41796875 C-56.41984375 168.40796875 -56.74984375 169.39796875 -57.08984375 170.41796875 C-61.54484375 170.91296875 -61.54484375 170.91296875 -66.08984375 171.41796875 C-66.74984375 174.71796875 -67.40984375 178.01796875 -68.08984375 181.41796875 C-55.21984375 181.41796875 -42.34984375 181.41796875 -29.08984375 181.41796875 C-29.08984375 179.76796875 -29.08984375 178.11796875 -29.08984375 176.41796875 C-29.82589844 176.3921875 -30.56195313 176.36640625 -31.3203125 176.33984375 C-32.29613281 176.283125 -33.27195313 176.22640625 -34.27734375 176.16796875 C-35.72173828 176.09835938 -35.72173828 176.09835938 -37.1953125 176.02734375 C-40.87088462 175.25353909 -42.52696062 174.16133661 -45.08984375 171.41796875 C-46.32654099 167.09735562 -46.59575022 162.9097281 -47.08984375 158.41796875 C-53.35984375 158.41796875 -59.62984375 158.41796875 -66.08984375 158.41796875 Z " fill="#6187F2" transform="translate(204.08984375,27.58203125)"/>
<path d="M0 0 C9.57 0 19.14 0 29 0 C30.03047937 5.15239686 30.18371634 9.77854334 30.1875 15 C30.19974609 15.88945313 30.21199219 16.77890625 30.22460938 17.6953125 C30.22750977 18.99082031 30.22750977 18.99082031 30.23046875 20.3125 C30.23457764 21.09238281 30.23868652 21.87226562 30.24291992 22.67578125 C30 25 30 25 28 30 C19.09 30 10.18 30 1 30 C-1.25184808 24.37037981 -1.25184808 24.37037981 -1.23046875 20.3125 C-1.22853516 19.44882813 -1.22660156 18.58515625 -1.22460938 17.6953125 C-1.21236328 16.80585937 -1.20011719 15.91640625 -1.1875 15 C-1.18685547 14.11054687 -1.18621094 13.22109375 -1.18554688 12.3046875 C-1.15632907 7.9544807 -0.86428332 4.32141659 0 0 Z " fill="#6286F1" transform="translate(128,80)"/>
<path d="M0 0 C12.02582926 2.13361487 22.04726058 7.13614467 29.1875 17.25 C36.53883865 28.92914285 36.53883865 28.92914285 35.59765625 34.29296875 C35.40042969 34.85628906 35.20320313 35.41960937 35 36 C34.28457031 35.60167969 33.56914062 35.20335937 32.83203125 34.79296875 C25.36884626 30.82483287 18.30239866 28.52657008 10 27 C9.69707031 25.80503906 9.39414063 24.61007813 9.08203125 23.37890625 C5.92352666 11.12219696 5.92352666 11.12219696 0 0 Z " fill="#6187F1" transform="translate(150,51)"/>
<path d="M0 0 C-0.721875 0.94875 -1.44375 1.8975 -2.1875 2.875 C-6.57395275 9.76799717 -8.03252271 18.1635798 -10 26 C-11.08539063 26.25394531 -12.17078125 26.50789063 -13.2890625 26.76953125 C-14.73446724 27.11680382 -16.17977465 27.46448164 -17.625 27.8125 C-18.33785156 27.97814453 -19.05070312 28.14378906 -19.78515625 28.31445312 C-24.20214938 29.38830925 -27.98364159 30.80056563 -32 33 C-33.33333333 33.66666667 -34.66666667 34.33333333 -36 35 C-35.51286146 24.28295207 -29.41039572 15.36284961 -21.796875 8.19921875 C-16.17924993 3.78200798 -7.35110021 -2.45036674 0 0 Z " fill="#6287F2" transform="translate(135,52)"/>
<path d="M0 0 C8.70999715 0.96777746 16.11594646 1.90861045 23.0625 7.4375 C24.93754654 9.91740027 26.07085276 12.04362243 27 15 C21.30210739 22.68352185 15.35132564 25.76842846 6.078125 27.703125 C4 28 4 28 0 28 C0 18.76 0 9.52 0 0 Z " fill="#6286F2" transform="translate(160,81)"/>
<path d="M0 0 C9.24 0 18.48 0 28 0 C27.4225 2.51625 26.845 5.0325 26.25 7.625 C26.07758789 8.40568848 25.90517578 9.18637695 25.72753906 9.99072266 C24.31285851 15.88123712 21.89092876 20.10907124 17.5625 24.4375 C15 26 15 26 12.5625 26.1875 C7.54923123 23.86427789 4.90453288 20.08181721 2.73046875 15.078125 C0.81921862 9.64828365 0 5.87532926 0 0 Z " fill="#6286F2" transform="translate(129,113)"/>
<path d="M0 0 C0 9.24 0 18.48 0 28 C-8.61638498 27.04262389 -17.57675115 25.62669385 -24.1875 19.4375 C-25.95637856 17.05866332 -26.67209877 15.89099587 -27 13 C-23.32738474 5.99283448 -16.45563098 3.19159689 -9.375 0.75 C-6 0 -6 0 0 0 Z " fill="#6286F1" transform="translate(125,81)"/>
<path d="M0 0 C1.52430077 4.4214817 0.20818199 7.12356824 -1.578125 11.27734375 C-7.32196931 22.27585881 -17.09947025 31.20195859 -29 35 C-32.0625 35.25 -32.0625 35.25 -34 35 C-33.58234375 34.21882813 -33.58234375 34.21882813 -33.15625 33.421875 C-31.72650725 30.42714357 -30.61874475 27.37429937 -29.5 24.25 C-29.0771875 23.07953125 -28.654375 21.9090625 -28.21875 20.703125 C-26.94216062 16.82425727 -25.94461232 12.97087033 -25 9 C-23.94941406 8.76925781 -22.89882812 8.53851563 -21.81640625 8.30078125 C-13.88884201 6.48499154 -6.83128275 4.63009164 0 0 Z " fill="#6187F1" transform="translate(185,103)"/>
<path d="M0 0 C5.11829235 1.86119722 7.72933907 5.8581823 10.01953125 10.6640625 C12.22566392 16.32361132 12.75 19.65442037 12.75 26 C3.84 26 -5.07 26 -14.25 26 C-14.25 16.4922232 -12.12372936 9.28813179 -5.6171875 2.2421875 C-3.69072515 0.49185885 -2.62305733 0 0 0 Z " fill="#6286F1" transform="translate(143.25,51)"/>
<path d="M0 0 C0.70382813 0.39832031 1.40765625 0.79664062 2.1328125 1.20703125 C10.03566513 5.44733468 17.18303127 7.51311474 26 9 C26.31453125 10.22976562 26.6290625 11.45953125 26.953125 12.7265625 C27.38482917 14.35953043 27.81715378 15.99233442 28.25 17.625 C28.45496094 18.43324219 28.65992187 19.24148437 28.87109375 20.07421875 C30.23016052 25.13983126 31.94238966 28.75331898 35 33 C35 33.66 35 34.32 35 35 C26.05673905 34.82801421 18.96980425 30.57521528 12.40625 24.6640625 C5.70761521 17.5858384 0.64525878 9.89396799 0 0 Z " fill="#6186F1" transform="translate(99,103)"/>
</svg>
