<?xml version="1.0" encoding="UTF-8"?>
<svg xmlns="http://www.w3.org/2000/svg" xmlns:xlink="http://www.w3.org/1999/xlink" width="160px" height="160px" viewBox="0 0 160 160" version="1.1">
<g id="surface1">
<path style=" stroke:none;fill-rule:nonzero;fill:rgb(17.647059%,30.980393%,87.843138%);fill-opacity:1;" d="M 148.125 3.125 C 150.886719 4.671875 153.230469 6.09375 155 8.75 C 154.8125 11.632812 153.898438 13.652344 152.457031 16.125 C 152.054688 16.816406 151.65625 17.511719 151.242188 18.226562 C 150.800781 18.972656 150.363281 19.722656 149.921875 20.46875 C 149.46875 21.25 149.011719 22.035156 148.558594 22.816406 C 147.625 24.429688 146.6875 26.035156 145.75 27.644531 C 144.085938 30.492188 142.441406 33.351562 140.792969 36.210938 C 139.648438 38.203125 138.496094 40.195312 137.347656 42.1875 C 135.921875 44.648438 134.503906 47.113281 133.085938 49.578125 C 132.445312 50.695312 131.804688 51.808594 131.164062 52.921875 C 130.359375 54.316406 129.558594 55.714844 128.757812 57.109375 C 128.390625 57.742188 128.027344 58.375 127.652344 59.027344 C 127.308594 59.628906 126.964844 60.230469 126.609375 60.847656 C 125.734375 62.316406 124.789062 63.695312 123.804688 65.09375 C 122.085938 67.8125 122.136719 70.296875 122.304688 73.4375 C 122.320312 73.953125 122.332031 74.464844 122.347656 74.996094 C 122.382812 76.246094 122.441406 77.5 122.5 78.75 C 123.097656 78.886719 123.695312 79.023438 124.308594 79.164062 C 132.714844 81.183594 138.8125 84.457031 145 90.625 C 145.398438 91.007812 145.796875 91.394531 146.207031 91.789062 C 152.757812 98.601562 156.238281 108.773438 156.25 118.125 C 155.726562 127.355469 153.367188 135.179688 147.5 142.5 C 147.113281 142.988281 146.726562 143.476562 146.328125 143.980469 C 139.183594 152.523438 129.429688 156.679688 118.472656 157.699219 C 107.753906 158.066406 98.082031 154.484375 90 147.5 C 89.574219 147.140625 89.152344 146.785156 88.714844 146.414062 C 84.808594 142.855469 82.316406 138.449219 80 133.75 C 80 133.335938 80 132.925781 80 132.5 C 79.523438 132.507812 79.046875 132.515625 78.554688 132.519531 C 74.046875 132.582031 69.542969 132.632812 65.039062 132.660156 C 62.722656 132.679688 60.40625 132.699219 58.089844 132.734375 C 55.851562 132.769531 53.613281 132.789062 51.378906 132.796875 C 50.527344 132.800781 49.675781 132.8125 48.824219 132.832031 C 41.3125 132.972656 41.3125 132.972656 38.863281 130.996094 C 36.992188 128.769531 36.800781 127.773438 36.835938 124.921875 C 36.839844 124.351562 36.847656 123.785156 36.851562 123.199219 C 36.859375 122.761719 36.867188 122.324219 36.875 121.875 C 36.378906 121.902344 35.878906 121.933594 35.367188 121.960938 C 29.28125 122.171875 29.28125 122.171875 27.109375 120.78125 C 24.917969 118.703125 24.417969 117.589844 24.234375 114.527344 C 24.234375 113.585938 24.242188 112.648438 24.253906 111.707031 C 24.253906 111.214844 24.257812 110.71875 24.257812 110.207031 C 24.265625 108.628906 24.28125 107.046875 24.296875 105.46875 C 24.304688 104.394531 24.308594 103.324219 24.3125 102.25 C 24.328125 99.625 24.347656 97 24.375 94.375 C 23.777344 94.375 23.183594 94.375 22.570312 94.378906 C 21.394531 94.378906 21.394531 94.378906 20.191406 94.378906 C 19.417969 94.378906 18.640625 94.382812 17.839844 94.382812 C 9.828125 94.355469 9.828125 94.355469 6.480469 91.070312 C 2.425781 86 3.601562 76.339844 4.101562 70.289062 C 4.574219 66.5625 5.109375 63.640625 7.8125 60.9375 C 10.066406 59.585938 11.730469 59.296875 14.304688 59.3125 C 14.890625 59.316406 15.476562 59.316406 16.082031 59.320312 C 16.996094 59.328125 16.996094 59.328125 17.929688 59.335938 C 18.546875 59.339844 19.164062 59.339844 19.800781 59.34375 C 21.324219 59.351562 22.851562 59.363281 24.375 59.375 C 24.371094 58.851562 24.363281 58.328125 24.359375 57.785156 C 24.308594 52.839844 24.269531 47.894531 24.246094 42.945312 C 24.234375 40.402344 24.214844 37.859375 24.1875 35.316406 C 24.160156 32.859375 24.144531 30.40625 24.136719 27.949219 C 24.132812 27.011719 24.125 26.078125 24.109375 25.140625 C 24.09375 23.828125 24.089844 22.515625 24.089844 21.203125 C 24.085938 20.457031 24.082031 19.707031 24.074219 18.9375 C 24.441406 16.410156 25.257812 15.085938 26.875 13.125 C 28.785156 11.921875 30.261719 11.714844 32.496094 11.707031 C 33.125 11.703125 33.753906 11.695312 34.402344 11.691406 C 35.433594 11.691406 35.433594 11.691406 36.484375 11.695312 C 37.574219 11.6875 37.574219 11.6875 38.683594 11.679688 C 41.085938 11.667969 43.488281 11.667969 45.894531 11.664062 C 47.140625 11.660156 48.386719 11.660156 49.636719 11.65625 C 53.558594 11.644531 57.480469 11.640625 61.402344 11.644531 C 65.441406 11.644531 69.484375 11.632812 73.527344 11.609375 C 77 11.59375 80.472656 11.589844 83.945312 11.589844 C 86.019531 11.589844 88.09375 11.585938 90.164062 11.574219 C 92.476562 11.558594 94.792969 11.5625 97.105469 11.570312 C 97.789062 11.5625 98.472656 11.558594 99.175781 11.550781 C 102.972656 11.582031 105.253906 11.804688 108.125 14.375 C 109.71875 16.980469 109.476562 19.535156 109.375 22.5 C 109.828125 22.472656 110.28125 22.441406 110.746094 22.414062 C 113.679688 22.300781 115.742188 22.265625 118.4375 23.515625 C 121.460938 26.390625 122.113281 29.28125 122.304688 33.359375 C 122.347656 34.136719 122.386719 34.914062 122.429688 35.71875 C 122.464844 36.601562 122.464844 36.601562 122.5 37.5 C 123.765625 35.339844 125.027344 33.175781 126.289062 31.015625 C 126.675781 30.351562 127.066406 29.6875 127.464844 29 C 129.601562 25.339844 131.726562 21.675781 133.832031 17.996094 C 134.253906 17.257812 134.675781 16.523438 135.097656 15.785156 C 135.90625 14.371094 136.710938 12.957031 137.515625 11.542969 C 137.886719 10.894531 138.257812 10.25 138.636719 9.582031 C 138.960938 9.011719 139.285156 8.445312 139.621094 7.859375 C 143.386719 1.832031 143.386719 1.832031 148.125 3.125 Z M 145.625 8.125 C 144.605469 9.316406 144.605469 9.316406 143.632812 10.820312 C 143.289062 11.320312 142.945312 11.820312 142.589844 12.335938 C 142.355469 12.804688 142.117188 13.269531 141.875 13.75 C 142.082031 14.367188 142.289062 14.988281 142.5 15.625 C 144.378906 16.390625 144.378906 16.390625 146.25 16.875 C 147.488281 14.605469 148.726562 12.335938 150 10 C 147.304688 8.019531 147.304688 8.019531 145.625 8.125 Z M 29.375 17.5 C 29.316406 18.804688 29.300781 20.109375 29.304688 21.414062 C 29.304688 21.824219 29.304688 22.230469 29.304688 22.652344 C 29.304688 24.007812 29.308594 25.363281 29.3125 26.722656 C 29.316406 27.660156 29.316406 28.597656 29.316406 29.535156 C 29.320312 32.007812 29.324219 34.480469 29.332031 36.953125 C 29.339844 39.476562 29.339844 42 29.34375 44.519531 C 29.351562 49.472656 29.363281 54.421875 29.375 59.375 C 31.851562 59.375 34.324219 59.375 36.875 59.375 C 36.882812 58.425781 36.894531 57.476562 36.902344 56.5 C 36.9375 52.976562 36.988281 49.453125 37.039062 45.929688 C 37.058594 44.402344 37.078125 42.878906 37.089844 41.355469 C 37.113281 39.160156 37.144531 36.96875 37.179688 34.777344 C 37.183594 34.097656 37.1875 33.414062 37.191406 32.714844 C 37.308594 26.65625 37.308594 26.65625 39.375 24.375 C 41.15625 23.308594 42.480469 22.964844 44.546875 22.949219 C 45.34375 22.941406 45.34375 22.941406 46.152344 22.929688 C 46.726562 22.929688 47.304688 22.925781 47.894531 22.925781 C 48.507812 22.917969 49.117188 22.914062 49.746094 22.90625 C 51.761719 22.886719 53.777344 22.875 55.792969 22.867188 C 57.1875 22.855469 58.585938 22.84375 59.984375 22.828125 C 63.664062 22.796875 67.339844 22.773438 71.019531 22.75 C 74.773438 22.722656 78.527344 22.691406 82.28125 22.660156 C 89.644531 22.601562 97.011719 22.546875 104.375 22.5 C 104.480469 20.363281 104.480469 20.363281 104.375 18.125 C 103.265625 16.757812 103.265625 16.757812 101.832031 16.71875 C 101.292969 16.71875 100.757812 16.71875 100.203125 16.71875 C 99.585938 16.71875 98.96875 16.714844 98.335938 16.710938 C 97.320312 16.71875 97.320312 16.71875 96.28125 16.722656 C 95.566406 16.722656 94.855469 16.722656 94.121094 16.71875 C 91.757812 16.71875 89.394531 16.722656 87.027344 16.730469 C 85.394531 16.730469 83.757812 16.730469 82.121094 16.730469 C 78.6875 16.730469 75.253906 16.738281 71.824219 16.746094 C 67.847656 16.757812 63.875 16.757812 59.902344 16.757812 C 56.085938 16.757812 52.269531 16.761719 48.453125 16.765625 C 46.824219 16.769531 45.199219 16.769531 43.570312 16.769531 C 41.300781 16.773438 39.03125 16.777344 36.765625 16.785156 C 35.746094 16.785156 35.746094 16.785156 34.703125 16.785156 C 34.089844 16.785156 33.476562 16.789062 32.84375 16.792969 C 32.304688 16.792969 31.769531 16.792969 31.214844 16.792969 C 29.996094 16.742188 29.996094 16.742188 29.375 17.5 Z M 138.75 19.375 C 138.503906 19.804688 138.253906 20.234375 138 20.679688 C 132.839844 29.625 127.675781 38.566406 122.5 47.5 C 123.941406 48.828125 123.941406 48.828125 125.625 50 C 128.140625 49.160156 128.394531 48.109375 129.671875 45.816406 C 129.878906 45.453125 130.082031 45.089844 130.292969 44.714844 C 130.957031 43.539062 131.609375 42.355469 132.265625 41.171875 C 133.164062 39.566406 134.0625 37.964844 134.964844 36.363281 C 135.183594 35.972656 135.402344 35.578125 135.628906 35.175781 C 137.742188 31.417969 139.992188 27.757812 142.308594 24.117188 C 142.578125 23.585938 142.847656 23.050781 143.125 22.5 C 142.816406 21.570312 142.816406 21.570312 142.5 20.625 C 140.621094 19.859375 140.621094 19.859375 138.75 19.375 Z M 41.875 28.125 C 41.816406 29.101562 41.800781 30.085938 41.804688 31.066406 C 41.804688 31.691406 41.804688 32.316406 41.804688 32.960938 C 41.808594 33.640625 41.8125 34.320312 41.8125 35.023438 C 41.816406 35.714844 41.816406 36.40625 41.816406 37.121094 C 41.820312 39.34375 41.828125 41.566406 41.835938 43.789062 C 41.839844 45.292969 41.84375 46.792969 41.84375 48.296875 C 41.851562 51.988281 41.863281 55.683594 41.875 59.375 C 42.316406 59.496094 42.753906 59.613281 43.207031 59.734375 C 43.78125 59.898438 44.351562 60.058594 44.941406 60.226562 C 45.792969 60.460938 45.792969 60.460938 46.664062 60.703125 C 48.125 61.25 48.125 61.25 49.078125 62.644531 C 49.175781 63.214844 49.273438 63.785156 49.375 64.375 C 49.550781 65.105469 49.726562 65.839844 49.90625 66.59375 C 50.066406 67.371094 50.226562 68.144531 50.390625 68.945312 C 50.554688 69.730469 50.714844 70.511719 50.882812 71.320312 C 51.003906 71.917969 51.125 72.511719 51.25 73.125 C 52.179688 72.816406 52.179688 72.816406 53.125 72.5 C 54.78125 72.441406 56.421875 72.414062 58.078125 72.417969 C 58.585938 72.417969 59.089844 72.417969 59.609375 72.414062 C 61.277344 72.414062 62.945312 72.414062 64.613281 72.417969 C 65.769531 72.417969 66.925781 72.414062 68.082031 72.414062 C 70.507812 72.414062 72.933594 72.414062 75.359375 72.417969 C 78.476562 72.421875 81.589844 72.421875 84.703125 72.417969 C 87.09375 72.414062 89.484375 72.414062 91.871094 72.417969 C 93.019531 72.417969 94.167969 72.417969 95.316406 72.414062 C 96.921875 72.414062 98.523438 72.414062 100.125 72.417969 C 100.601562 72.417969 101.082031 72.417969 101.574219 72.414062 C 104.855469 72.429688 104.855469 72.429688 106.25 73.125 C 106.25 74.15625 106.25 75.1875 106.25 76.25 C 79.335938 76.558594 79.335938 76.558594 51.875 76.875 C 51.667969 76.460938 51.460938 76.050781 51.25 75.625 C 51.25 78.511719 51.25 81.398438 51.25 84.375 C 57 84.445312 62.746094 84.503906 68.496094 84.535156 C 71.164062 84.554688 73.835938 84.574219 76.503906 84.609375 C 79.085938 84.644531 81.667969 84.664062 84.25 84.671875 C 85.230469 84.675781 86.210938 84.6875 87.1875 84.707031 C 92.476562 84.792969 96.882812 84.632812 101.65625 82.03125 C 106.351562 79.539062 111.65625 79.089844 116.875 78.75 C 116.875 76.6875 116.875 74.625 116.875 72.5 C 115.207031 73.101562 113.886719 73.640625 112.5 74.765625 C 110.9375 75.839844 109.984375 75.691406 108.125 75.625 C 108.199219 74.179688 108.277344 72.734375 108.359375 71.289062 C 108.425781 70.082031 108.425781 70.082031 108.492188 68.851562 C 108.902344 64.125 109.714844 60.765625 112.554688 56.921875 C 116.933594 50.824219 117.503906 45.359375 117.382812 38.085938 C 117.375 37.632812 117.371094 37.179688 117.363281 36.714844 C 117.605469 31.691406 117.605469 31.691406 115.625 27.5 C 114.277344 27.3125 114.277344 27.3125 112.703125 27.34375 C 112.085938 27.34375 111.46875 27.339844 110.835938 27.335938 C 109.820312 27.34375 109.820312 27.34375 108.78125 27.347656 C 108.066406 27.347656 107.355469 27.347656 106.621094 27.34375 C 104.257812 27.34375 101.894531 27.347656 99.527344 27.355469 C 97.894531 27.355469 96.257812 27.355469 94.621094 27.355469 C 91.1875 27.355469 87.753906 27.363281 84.324219 27.371094 C 80.347656 27.382812 76.375 27.382812 72.402344 27.382812 C 68.585938 27.382812 64.769531 27.386719 60.953125 27.390625 C 59.324219 27.394531 57.699219 27.394531 56.070312 27.394531 C 53.800781 27.398438 51.53125 27.402344 49.265625 27.410156 C 48.246094 27.410156 48.246094 27.410156 47.203125 27.410156 C 46.589844 27.410156 45.976562 27.414062 45.34375 27.417969 C 44.804688 27.417969 44.269531 27.417969 43.714844 27.417969 C 42.496094 27.367188 42.496094 27.367188 41.875 28.125 Z M 120 52.5 C 117.695312 55.316406 115.90625 58.335938 115 61.875 C 117.035156 63.285156 117.035156 63.285156 119.375 63.75 C 121.023438 60.65625 122.675781 57.5625 124.375 54.375 C 121.679688 52.394531 121.679688 52.394531 120 52.5 Z M 9.878906 65.859375 C 9.007812 68.6875 8.878906 71.429688 8.75 74.375 C 8.722656 74.910156 8.699219 75.441406 8.671875 75.992188 C 8.5625 80.390625 8.761719 85.015625 11.25 88.75 C 13.011719 89.335938 14.101562 89.457031 15.925781 89.464844 C 16.492188 89.46875 17.058594 89.472656 17.640625 89.476562 C 18.25 89.480469 18.859375 89.480469 19.488281 89.480469 C 20.429688 89.484375 20.429688 89.484375 21.390625 89.484375 C 22.71875 89.488281 24.050781 89.492188 25.378906 89.492188 C 27.410156 89.492188 29.441406 89.503906 31.472656 89.515625 C 32.761719 89.515625 34.054688 89.519531 35.347656 89.519531 C 35.953125 89.523438 36.558594 89.527344 37.1875 89.53125 C 41.25 89.5625 41.25 89.5625 45 88.125 C 46.792969 84.789062 46.433594 80.917969 46.40625 77.226562 C 46.410156 76.59375 46.414062 75.960938 46.421875 75.3125 C 46.527344 69.363281 46.527344 69.363281 43.75 64.375 C 42.324219 64.171875 42.324219 64.171875 40.65625 64.183594 C 40.011719 64.171875 39.367188 64.164062 38.703125 64.152344 C 38.003906 64.148438 37.304688 64.148438 36.585938 64.144531 C 35.871094 64.136719 35.152344 64.132812 34.417969 64.125 C 32.902344 64.117188 31.386719 64.113281 29.875 64.109375 C 27.550781 64.101562 25.230469 64.070312 22.90625 64.039062 C 21.4375 64.035156 19.96875 64.027344 18.5 64.027344 C 17.800781 64.011719 17.105469 64 16.386719 63.988281 C 12.707031 63.855469 12.707031 63.855469 9.878906 65.859375 Z M 113.125 66.25 C 113.332031 67.074219 113.539062 67.898438 113.75 68.75 C 114.164062 68.132812 114.574219 67.511719 115 66.875 C 114.382812 66.667969 113.761719 66.460938 113.125 66.25 Z M 91.25 93.75 C 83.9375 101.816406 81.546875 111.25 81.875 121.875 C 84.695312 121 87.328125 119.875 89.984375 118.589844 C 90.8125 118.195312 91.640625 117.800781 92.46875 117.40625 C 93.757812 116.789062 95.046875 116.167969 96.335938 115.542969 C 97.585938 114.9375 98.84375 114.339844 100.101562 113.746094 C 100.480469 113.558594 100.863281 113.371094 101.257812 113.175781 C 103.414062 112.160156 105.113281 111.492188 107.5 111.875 C 108.601562 112.621094 108.601562 112.621094 109.582031 113.652344 C 109.9375 114.019531 110.296875 114.386719 110.664062 114.761719 C 111.023438 115.152344 111.386719 115.539062 111.757812 115.9375 C 112.132812 116.324219 112.503906 116.710938 112.890625 117.113281 C 113.808594 118.066406 114.71875 119.03125 115.625 120 C 117.894531 117.785156 119.996094 115.480469 122.03125 113.046875 C 122.324219 112.695312 122.621094 112.347656 122.921875 111.988281 C 125.730469 108.640625 128.5 105.265625 131.25 101.875 C 134.6875 102.074219 136.714844 104.199219 139.21875 106.328125 C 140.109375 107.066406 140.996094 107.808594 141.886719 108.546875 C 142.3125 108.90625 142.742188 109.261719 143.179688 109.628906 C 144.691406 110.886719 146.226562 112.109375 147.773438 113.320312 C 148.199219 113.652344 148.621094 113.984375 149.058594 114.328125 C 149.890625 115.058594 149.890625 115.058594 150.625 115 C 150.40625 105.9375 146.058594 98.289062 139.648438 92.070312 C 125.214844 79.640625 104.882812 80.785156 91.25 93.75 Z M 50.625 84.375 C 51.25 85.625 51.25 85.625 51.25 85.625 Z M 50 86.875 C 49.753906 87.558594 49.511719 88.242188 49.257812 88.945312 C 48.28125 91.214844 47.316406 92.132812 45 93.125 C 43.960938 93.347656 42.917969 93.558594 41.875 93.75 C 41.859375 98.457031 41.847656 103.164062 41.839844 107.867188 C 41.835938 109.46875 41.832031 111.074219 41.828125 112.675781 C 41.820312 114.972656 41.816406 117.269531 41.8125 119.566406 C 41.8125 120.289062 41.808594 121.011719 41.804688 121.753906 C 41.804688 122.417969 41.804688 123.078125 41.804688 123.761719 C 41.800781 124.351562 41.800781 124.9375 41.800781 125.542969 C 41.726562 126.863281 41.726562 126.863281 42.5 127.5 C 43.613281 127.558594 44.726562 127.574219 45.839844 127.570312 C 46.554688 127.570312 47.269531 127.570312 48.003906 127.570312 C 49.167969 127.566406 49.167969 127.566406 50.355469 127.5625 C 51.144531 127.558594 51.933594 127.558594 52.746094 127.558594 C 54.851562 127.554688 56.953125 127.550781 59.058594 127.542969 C 61.203125 127.535156 63.347656 127.535156 65.492188 127.53125 C 69.703125 127.523438 73.914062 127.511719 78.125 127.5 C 77.816406 125.335938 77.816406 125.335938 77.5 123.125 C 68.21875 122.917969 58.9375 122.710938 49.375 122.5 C 49.683594 120.644531 49.683594 120.644531 50 118.75 C 58.867188 118.542969 67.738281 118.335938 76.875 118.125 C 77.082031 116.476562 77.289062 114.824219 77.5 113.125 C 63.886719 112.816406 63.886719 112.816406 50 112.5 C 49.375 110 49.375 110 50 108.75 C 64.230469 108.441406 64.230469 108.441406 78.75 108.125 C 79.679688 104.722656 79.679688 104.722656 80.625 101.25 C 79.78125 101.234375 78.933594 101.21875 78.0625 101.203125 C 74.933594 101.144531 71.804688 101.082031 68.675781 101.015625 C 67.320312 100.988281 65.964844 100.964844 64.609375 100.9375 C 62.664062 100.902344 60.71875 100.863281 58.773438 100.824219 C 58.164062 100.8125 57.558594 100.800781 56.929688 100.792969 C 56.367188 100.777344 55.804688 100.765625 55.222656 100.753906 C 54.726562 100.742188 54.230469 100.734375 53.71875 100.722656 C 52.5 100.625 52.5 100.625 51.25 100 C 51.457031 98.96875 51.664062 97.9375 51.875 96.875 C 52.261719 96.882812 52.648438 96.890625 53.046875 96.898438 C 57.09375 96.96875 61.136719 96.992188 65.183594 96.984375 C 66.691406 96.988281 68.199219 97.007812 69.707031 97.035156 C 78.332031 97.671875 78.332031 97.671875 86.023438 94.691406 C 88.363281 92.039062 88.363281 92.039062 89.375 88.75 C 88.898438 88.746094 88.425781 88.738281 87.9375 88.734375 C 83.464844 88.6875 78.996094 88.632812 74.527344 88.570312 C 72.230469 88.539062 69.929688 88.511719 67.632812 88.484375 C 65.417969 88.464844 63.199219 88.433594 60.984375 88.402344 C 60.136719 88.390625 59.289062 88.378906 58.441406 88.371094 C 57.257812 88.363281 56.074219 88.34375 54.890625 88.324219 C 54.21875 88.316406 53.542969 88.308594 52.847656 88.300781 C 51.25 88.125 51.25 88.125 50 86.875 Z M 29.375 94.375 C 29.34375 97.378906 29.320312 100.382812 29.304688 103.386719 C 29.300781 104.40625 29.292969 105.429688 29.28125 106.453125 C 29.265625 107.917969 29.257812 109.386719 29.253906 110.855469 C 29.246094 111.3125 29.238281 111.769531 29.234375 112.242188 C 29.234375 113.371094 29.296875 114.5 29.375 115.625 C 29.789062 116.039062 30.199219 116.449219 30.625 116.875 C 32.6875 116.875 34.75 116.875 36.875 116.875 C 36.875 109.449219 36.875 102.023438 36.875 94.375 C 34.398438 94.375 31.925781 94.375 29.375 94.375 Z M 132.5 107.5 C 127.714844 112.421875 122.789062 117.769531 119.375 123.75 C 119.652344 123.984375 119.929688 124.21875 120.21875 124.460938 C 121.289062 125.429688 122.25 126.351562 123.125 127.5 C 123.046875 129.296875 123.046875 129.296875 122.5 130.625 C 119.515625 130.347656 118.335938 129.210938 116.332031 127.046875 C 115.765625 126.453125 115.199219 125.859375 114.617188 125.25 C 113.730469 124.304688 112.847656 123.355469 111.96875 122.402344 C 111.113281 121.480469 110.246094 120.570312 109.378906 119.664062 C 108.867188 119.113281 108.355469 118.566406 107.832031 118 C 106.328125 116.699219 106.328125 116.699219 104.457031 116.894531 C 102.242188 117.582031 100.152344 118.425781 98.054688 119.410156 C 97.441406 119.691406 97.441406 119.691406 96.8125 119.980469 C 95.953125 120.378906 95.097656 120.78125 94.242188 121.183594 C 92.925781 121.796875 91.605469 122.402344 90.285156 123.003906 C 89.449219 123.394531 88.617188 123.785156 87.78125 124.175781 C 87.1875 124.445312 87.1875 124.445312 86.582031 124.71875 C 85.613281 125.179688 84.679688 125.710938 83.75 126.25 C 82.902344 128.796875 83.660156 129.773438 84.773438 132.125 C 89.789062 141.699219 96.210938 147.871094 106.558594 151.421875 C 116.390625 154.269531 125.925781 152.273438 134.769531 147.503906 C 142.160156 143.097656 147.804688 135.898438 150 127.5 C 150.53125 125.363281 150.871094 123.449219 150.625 121.25 C 149.445312 119.445312 147.890625 118.363281 146.132812 117.148438 C 145.679688 116.808594 145.226562 116.46875 144.757812 116.121094 C 143.835938 115.433594 142.90625 114.757812 141.96875 114.089844 C 140.730469 113.199219 139.515625 112.289062 138.3125 111.355469 C 135.601562 108.828125 135.601562 108.828125 132.5 107.5 Z M 132.5 107.5 "/>
<path style=" stroke:none;fill-rule:nonzero;fill:rgb(17.254902%,30.980393%,88.235295%);fill-opacity:1;" d="M 55.933594 59.910156 C 56.429688 59.910156 56.921875 59.910156 57.429688 59.910156 C 57.945312 59.90625 58.460938 59.90625 58.992188 59.902344 C 60.707031 59.898438 62.421875 59.894531 64.136719 59.894531 C 65.324219 59.894531 66.511719 59.890625 67.699219 59.890625 C 70.191406 59.886719 72.683594 59.882812 75.175781 59.882812 C 78.375 59.882812 81.574219 59.875 84.773438 59.863281 C 87.226562 59.859375 89.679688 59.855469 92.132812 59.855469 C 93.3125 59.855469 94.492188 59.855469 95.671875 59.847656 C 97.320312 59.84375 98.96875 59.84375 100.617188 59.847656 C 101.109375 59.84375 101.597656 59.839844 102.105469 59.835938 C 105.480469 59.855469 105.480469 59.855469 106.875 61.25 C 106.953125 62.890625 106.953125 62.890625 106.875 64.375 C 104.902344 65.359375 102.789062 65.09375 100.625 65.089844 C 99.851562 65.09375 99.851562 65.09375 99.0625 65.097656 C 97.351562 65.101562 95.636719 65.105469 93.925781 65.105469 C 92.738281 65.105469 91.554688 65.109375 90.367188 65.109375 C 87.878906 65.113281 85.390625 65.117188 82.902344 65.117188 C 79.707031 65.117188 76.511719 65.125 73.316406 65.136719 C 70.867188 65.140625 68.417969 65.144531 65.96875 65.144531 C 64.789062 65.144531 63.609375 65.144531 62.433594 65.152344 C 60.789062 65.15625 59.144531 65.15625 57.5 65.152344 C 56.761719 65.15625 56.761719 65.15625 56.011719 65.164062 C 52.644531 65.144531 52.644531 65.144531 51.25 63.75 C 51.703125 60.042969 52.289062 59.929688 55.933594 59.910156 Z M 55.933594 59.910156 "/>
<path style=" stroke:none;fill-rule:nonzero;fill:rgb(17.647059%,30.980393%,88.235295%);fill-opacity:1;" d="M 55.933594 48.039062 C 56.675781 48.042969 56.675781 48.042969 57.429688 48.042969 C 57.945312 48.042969 58.460938 48.042969 58.992188 48.039062 C 60.707031 48.039062 62.421875 48.039062 64.136719 48.042969 C 65.324219 48.042969 66.511719 48.039062 67.699219 48.039062 C 70.191406 48.039062 72.683594 48.039062 75.175781 48.042969 C 78.375 48.046875 81.574219 48.046875 84.773438 48.042969 C 87.226562 48.039062 89.679688 48.039062 92.132812 48.042969 C 93.3125 48.042969 94.492188 48.042969 95.671875 48.039062 C 97.320312 48.039062 98.96875 48.039062 100.617188 48.042969 C 101.109375 48.042969 101.597656 48.042969 102.105469 48.039062 C 105.480469 48.054688 105.480469 48.054688 106.875 48.75 C 106.953125 50.234375 106.953125 50.234375 106.875 51.875 C 105.289062 53.460938 104.277344 53.277344 102.113281 53.292969 C 101.621094 53.292969 101.132812 53.289062 100.625 53.285156 C 100.109375 53.289062 99.59375 53.292969 99.0625 53.292969 C 97.347656 53.300781 95.636719 53.296875 93.925781 53.289062 C 92.738281 53.292969 91.554688 53.292969 90.367188 53.292969 C 87.878906 53.296875 85.390625 53.292969 82.902344 53.289062 C 79.707031 53.28125 76.511719 53.285156 73.316406 53.292969 C 70.867188 53.296875 68.417969 53.296875 65.96875 53.292969 C 64.789062 53.292969 63.609375 53.292969 62.433594 53.296875 C 60.789062 53.296875 59.144531 53.292969 57.5 53.285156 C 56.761719 53.289062 56.761719 53.289062 56.011719 53.292969 C 52.644531 53.269531 52.644531 53.269531 51.25 51.875 C 51.703125 48.167969 52.289062 48.054688 55.933594 48.039062 Z M 55.933594 48.039062 "/>
<path style=" stroke:none;fill-rule:nonzero;fill:rgb(17.254902%,30.588236%,87.843138%);fill-opacity:1;" d="M 55.933594 36.789062 C 56.675781 36.792969 56.675781 36.792969 57.429688 36.792969 C 57.945312 36.792969 58.460938 36.792969 58.992188 36.789062 C 60.707031 36.789062 62.421875 36.789062 64.136719 36.792969 C 65.324219 36.792969 66.511719 36.789062 67.699219 36.789062 C 70.191406 36.789062 72.683594 36.789062 75.175781 36.792969 C 78.375 36.796875 81.574219 36.796875 84.773438 36.792969 C 87.226562 36.789062 89.679688 36.789062 92.132812 36.792969 C 93.3125 36.792969 94.492188 36.792969 95.671875 36.789062 C 97.320312 36.789062 98.96875 36.789062 100.617188 36.792969 C 101.109375 36.792969 101.597656 36.792969 102.105469 36.789062 C 105.480469 36.804688 105.480469 36.804688 106.875 37.5 C 106.953125 38.984375 106.953125 38.984375 106.875 40.625 C 105.289062 42.210938 104.277344 42.027344 102.113281 42.042969 C 101.621094 42.042969 101.132812 42.039062 100.625 42.035156 C 100.109375 42.039062 99.59375 42.042969 99.0625 42.042969 C 97.347656 42.050781 95.636719 42.046875 93.925781 42.039062 C 92.738281 42.042969 91.554688 42.042969 90.367188 42.042969 C 87.878906 42.046875 85.390625 42.042969 82.902344 42.039062 C 79.707031 42.03125 76.511719 42.035156 73.316406 42.042969 C 70.867188 42.046875 68.417969 42.046875 65.96875 42.042969 C 64.789062 42.042969 63.609375 42.042969 62.433594 42.046875 C 60.789062 42.046875 59.144531 42.042969 57.5 42.035156 C 56.761719 42.039062 56.761719 42.039062 56.011719 42.042969 C 52.644531 42.019531 52.644531 42.019531 51.25 40.625 C 51.703125 36.917969 52.289062 36.804688 55.933594 36.789062 Z M 55.933594 36.789062 "/>
<path style=" stroke:none;fill-rule:nonzero;fill:rgb(17.647059%,30.980393%,87.843138%);fill-opacity:1;" d="M 117.304688 88.242188 C 121.089844 90.3125 123.148438 92.71875 124.375 96.875 C 124.578125 100.578125 124 103.6875 121.605469 106.578125 C 118.9375 109.082031 116.136719 110.140625 112.5 110.351562 C 109.171875 110.199219 106.820312 109.125 104.375 106.875 C 102.441406 104.464844 101.3125 101.847656 101.25 98.75 C 101.886719 94.289062 103.421875 91.734375 106.914062 88.921875 C 110.179688 86.769531 113.753906 87.097656 117.304688 88.242188 Z M 106.875 95.625 C 106.070312 98.234375 106.066406 99.515625 107.03125 102.070312 C 108.050781 103.878906 108.050781 103.878906 110 105 C 112.941406 105.523438 115.015625 105.417969 117.5 103.710938 C 118.996094 101.511719 119.375 100.15625 119.375 97.5 C 118.390625 95.21875 117.207031 93.664062 115 92.5 C 111.222656 91.941406 109.40625 92.792969 106.875 95.625 Z M 106.875 95.625 "/>
<path style=" stroke:none;fill-rule:nonzero;fill:rgb(17.647059%,30.980393%,87.843138%);fill-opacity:1;" d="M 25.625 68.125 C 27.339844 68.917969 28.914062 69.886719 30.507812 70.898438 C 30.925781 71.152344 31.339844 71.410156 31.769531 71.671875 C 33.40625 72.683594 34.886719 73.636719 36.25 75 C 36.523438 76.796875 36.523438 76.796875 36.25 78.75 C 34.003906 80.8125 31.441406 82.394531 28.828125 83.945312 C 28.277344 84.292969 28.277344 84.292969 27.71875 84.648438 C 25.671875 85.855469 24.378906 86.25 21.988281 86.238281 C 20 85.625 20 85.625 19.261719 84.515625 C 18.703125 82.996094 18.589844 81.851562 18.585938 80.234375 C 18.582031 79.691406 18.582031 79.144531 18.578125 78.585938 C 18.582031 78.019531 18.589844 77.457031 18.59375 76.875 C 18.589844 76.3125 18.585938 75.746094 18.578125 75.164062 C 18.582031 74.621094 18.582031 74.078125 18.585938 73.515625 C 18.585938 73.019531 18.585938 72.527344 18.589844 72.015625 C 18.769531 70.457031 19.171875 69.453125 20 68.125 C 22.007812 67.121094 23.464844 67.65625 25.625 68.125 Z M 23.75 73.125 C 23.75 75.601562 23.75 78.074219 23.75 80.625 C 25.605469 79.59375 27.460938 78.5625 29.375 77.5 C 28.957031 75.585938 28.957031 75.585938 27.59375 74.894531 C 27.136719 74.683594 26.679688 74.472656 26.210938 74.257812 C 25.398438 73.882812 24.585938 73.511719 23.75 73.125 Z M 23.75 73.125 "/>
</g>
</svg>
